<svg xmlns="http://www.w3.org/2000/svg" xmlns:xlink="http://www.w3.org/1999/xlink" version="1.1" width="256" height="256" viewBox="0 0 256 256" xml:space="preserve">

<defs>
</defs>
<g style="stroke: none; stroke-width: 0; stroke-dasharray: none; stroke-linecap: butt; stroke-linejoin: miter; stroke-miterlimit: 10; fill: none; fill-rule: nonzero; opacity: 1;" transform="translate(1.4065934065934016 1.4065934065934016) scale(2.81 2.81)" >
	<path d="M 78.881 72.336 h -9.483 V 54.337 c 0 -0.959 -0.779 -1.739 -1.738 -1.739 H 22.341 c -0.959 0 -1.739 0.78 -1.739 1.739 v 17.999 H 11.12 c -3.571 0 -6.476 -2.905 -6.476 -6.477 V 22.671 c 0 -3.571 2.905 -6.476 6.476 -6.476 h 9.482 v 18 c 0 0.959 0.78 1.739 1.739 1.739 H 67.66 c 0.959 0 1.738 -0.78 1.738 -1.739 v -18 h 9.483 c 3.571 0 6.476 2.905 6.476 6.476 v 43.188 C 85.357 69.431 82.452 72.336 78.881 72.336 z M 72.365 69.369 h 6.515 c 1.935 0 3.509 -1.574 3.509 -3.51 V 22.671 c 0 -1.935 -1.574 -3.509 -3.509 -3.509 h -6.515 v 15.033 c 0 2.595 -2.111 4.706 -4.706 4.706 H 22.341 c -2.595 0 -4.706 -2.111 -4.706 -4.706 V 19.162 H 11.12 c -1.935 0 -3.509 1.574 -3.509 3.509 v 43.188 c 0 1.936 1.574 3.51 3.509 3.51 h 6.515 V 54.337 c 0 -2.595 2.111 -4.706 4.706 -4.706 H 67.66 c 2.594 0 4.706 2.111 4.706 4.706 V 69.369 z" style="stroke: none; stroke-width: 1; stroke-dasharray: none; stroke-linecap: butt; stroke-linejoin: miter; stroke-miterlimit: 10; fill: rgb(0,0,0); fill-rule: nonzero; opacity: 1;" transform=" matrix(1 0 0 1 0 0) " stroke-linecap="round" />
	<path d="M 61.701 90 H 28.3 c -1.814 0 -3.29 -1.492 -3.29 -3.326 V 61.561 c 0 -1.834 1.476 -3.326 3.29 -3.326 h 33.401 c 1.814 0 3.29 1.492 3.29 3.326 v 25.113 C 64.99 88.508 63.514 90 61.701 90 z M 28.3 61.202 c -0.175 0 -0.323 0.164 -0.323 0.359 v 25.113 c 0 0.195 0.148 0.359 0.323 0.359 h 33.401 c 0.175 0 0.323 -0.164 0.323 -0.359 V 61.561 c 0 -0.195 -0.148 -0.359 -0.323 -0.359 H 28.3 z" style="stroke: none; stroke-width: 1; stroke-dasharray: none; stroke-linecap: butt; stroke-linejoin: miter; stroke-miterlimit: 10; fill: rgb(0,0,0); fill-rule: nonzero; opacity: 1;" transform=" matrix(1 0 0 1 0 0) " stroke-linecap="round" />
	<path d="M 61.754 31.196 H 28.247 c -1.785 0 -3.237 -1.452 -3.237 -3.237 V 3.237 C 25.01 1.452 26.462 0 28.247 0 h 29.789 l 6.955 6.889 v 21.07 C 64.99 29.744 63.539 31.196 61.754 31.196 z M 28.247 2.967 c -0.144 0 -0.27 0.126 -0.27 0.27 v 24.721 c 0 0.144 0.126 0.27 0.27 0.27 h 33.507 c 0.144 0 0.269 -0.127 0.269 -0.27 V 8.126 l -5.209 -5.159 H 28.247 z" style="stroke: none; stroke-width: 1; stroke-dasharray: none; stroke-linecap: butt; stroke-linejoin: miter; stroke-miterlimit: 10; fill: rgb(0,0,0); fill-rule: nonzero; opacity: 1;" transform=" matrix(1 0 0 1 0 0) " stroke-linecap="round" />
	<path d="M 59.179 7.507 c -0.964 0 -1.754 -0.789 -1.754 -1.754 v -4.27 l 6.082 6.024 H 59.179 z" style="stroke: none; stroke-width: 1; stroke-dasharray: none; stroke-linecap: butt; stroke-linejoin: miter; stroke-miterlimit: 10; fill: rgb(0,0,0); fill-rule: nonzero; opacity: 1;" transform=" matrix(1 0 0 1 0 0) " stroke-linecap="round" />
	<path d="M 63.507 8.991 h -4.328 c -1.785 0 -3.237 -1.452 -3.237 -3.237 v -4.27 c 0 -0.599 0.36 -1.139 0.913 -1.369 s 1.189 -0.106 1.615 0.315 l 6.082 6.024 c 0.427 0.424 0.556 1.062 0.327 1.619 C 64.65 8.628 64.108 8.991 63.507 8.991 z M 58.908 5.041 v 0.713 c 0 0.144 0.127 0.27 0.27 0.27 h 0.722 L 58.908 5.041 z" style="stroke: none; stroke-width: 1; stroke-dasharray: none; stroke-linecap: butt; stroke-linejoin: miter; stroke-miterlimit: 10; fill: rgb(0,0,0); fill-rule: nonzero; opacity: 1;" transform=" matrix(1 0 0 1 0 0) " stroke-linecap="round" />
	<path d="M 55.938 70.668 H 33.793 c -0.82 0 -1.484 -0.664 -1.484 -1.484 s 0.664 -1.484 1.484 -1.484 h 22.145 c 0.819 0 1.484 0.664 1.484 1.484 S 56.757 70.668 55.938 70.668 z" style="stroke: none; stroke-width: 1; stroke-dasharray: none; stroke-linecap: butt; stroke-linejoin: miter; stroke-miterlimit: 10; fill: rgb(0,0,0); fill-rule: nonzero; opacity: 1;" transform=" matrix(1 0 0 1 0 0) " stroke-linecap="round" />
	<path d="M 46.507 80.558 H 33.793 c -0.82 0 -1.484 -0.664 -1.484 -1.484 c 0 -0.819 0.664 -1.484 1.484 -1.484 h 12.714 c 0.819 0 1.484 0.664 1.484 1.484 C 47.991 79.894 47.326 80.558 46.507 80.558 z" style="stroke: none; stroke-width: 1; stroke-dasharray: none; stroke-linecap: butt; stroke-linejoin: miter; stroke-miterlimit: 10; fill: rgb(0,0,0); fill-rule: nonzero; opacity: 1;" transform=" matrix(1 0 0 1 0 0) " stroke-linecap="round" />
</g>
</svg>